<svg width="400" height="550" viewBox="0 0 400 550" fill="none" xmlns="http://www.w3.org/2000/svg">
<path fill-rule="evenodd" clip-rule="evenodd" d="M290.173 0H33C14.7746 0 0 14.7746 0 33V517C0 535.225 14.7746 550 33 550H367C385.225 550 400 535.225 400 517V109.827L290.173 0Z" fill="#D9D9D9"/>
<path fill-rule="evenodd" clip-rule="evenodd" d="M290.173 0L400 109.827L323.173 109.827C304.948 109.827 290.173 95.0523 290.173 76.8269V0Z" fill="#BCBCBC"/>
<g filter="url(#filter0_d_105_126)">
<path d="M166.444 295.378C167.409 278.17 175.821 262.966 188.567 252.223C201.04 241.662 217.793 235.198 236.183 235.198C254.483 235.198 271.235 241.653 283.708 252.223C296.455 262.966 304.831 278.17 305.832 295.378C306.797 313.04 299.686 329.519 287.259 341.719C274.513 354.101 256.486 361.931 236.183 361.931C215.881 361.931 197.763 354.156 185.108 341.719C172.635 329.519 165.533 313.131 166.535 295.469L166.444 295.378Z" fill="white"/>
<path d="M204.589 293.27C205.085 284.428 209.408 276.614 215.958 271.094C222.368 265.666 230.977 262.344 240.428 262.344C249.832 262.344 258.441 265.662 264.85 271.094C271.401 276.614 275.705 284.428 276.219 293.27C276.715 302.347 273.061 310.815 266.675 317.085C260.125 323.448 250.861 327.471 240.428 327.471C229.994 327.471 220.684 323.476 214.181 317.085C207.771 310.815 204.121 302.394 204.636 293.317L204.589 293.27Z" fill="#265787"/>
<path d="M148.446 311.985C148.506 315.447 149.611 322.184 151.267 327.424C154.748 338.56 160.671 348.853 168.859 357.882C177.28 367.193 187.667 374.679 199.644 380.013C212.23 385.58 225.891 388.434 240.068 388.434C254.244 388.415 267.906 385.515 280.491 379.872C292.469 374.492 302.855 367.006 311.277 357.649C319.511 348.525 325.406 338.232 328.868 327.097C330.623 321.483 331.732 315.775 332.176 310.067C332.611 304.452 332.429 298.791 331.629 293.13C330.066 282.135 326.248 271.795 320.4 262.438C315.066 253.782 308.142 246.25 299.908 239.887L299.926 239.873L217.114 176.243C217.039 176.187 216.979 176.126 216.899 176.075C211.472 171.901 202.302 171.915 196.36 176.098C190.324 180.328 189.622 187.327 195.003 191.725L194.98 191.748L229.555 219.867L124.285 219.979H124.145C115.442 219.989 107.068 225.687 105.43 232.939C103.727 240.285 109.641 246.414 118.717 246.414L118.704 246.446L172.04 246.343L76.5957 319.33C76.474 319.419 76.343 319.513 76.2307 319.602C67.2477 326.479 64.3469 337.942 70.0081 345.147C75.7628 352.493 87.9741 352.539 97.0507 345.189L148.984 302.614C148.984 302.614 148.226 308.368 148.287 311.784L148.446 311.985ZM282.255 331.214C271.541 342.115 256.522 348.338 240.334 348.338C224.099 348.366 209.081 342.256 198.367 331.355C193.127 326.021 189.29 319.939 186.904 313.435C184.579 307.026 183.676 300.241 184.275 293.411C184.841 286.72 186.834 280.31 190.03 274.556C193.155 268.895 197.469 263.748 202.755 259.397C213.189 250.929 226.429 246.297 240.278 246.297C254.174 246.278 267.414 250.83 277.848 259.303C283.135 263.626 287.439 268.754 290.574 274.415C293.769 280.17 295.767 286.533 296.328 293.27C296.918 300.101 296.015 306.885 293.69 313.295C291.313 319.845 287.467 325.927 282.227 331.261L282.255 331.214Z" fill="#EA7600"/>
</g>
<defs>
<filter id="filter0_d_105_126" x="51.104" y="161.953" width="297.302" height="247.481" filterUnits="userSpaceOnUse" color-interpolation-filters="sRGB">
<feFlood flood-opacity="0" result="BackgroundImageFix"/>
<feColorMatrix in="SourceAlpha" type="matrix" values="0 0 0 0 0 0 0 0 0 0 0 0 0 0 0 0 0 0 127 0" result="hardAlpha"/>
<feOffset dy="5"/>
<feGaussianBlur stdDeviation="8"/>
<feComposite in2="hardAlpha" operator="out"/>
<feColorMatrix type="matrix" values="0 0 0 0 0 0 0 0 0 0 0 0 0 0 0 0 0 0 0.25 0"/>
<feBlend mode="normal" in2="BackgroundImageFix" result="effect1_dropShadow_105_126"/>
<feBlend mode="normal" in="SourceGraphic" in2="effect1_dropShadow_105_126" result="shape"/>
</filter>
</defs>
</svg>
