<svg width="349" height="261" viewBox="0 0 349 261" fill="none" xmlns="http://www.w3.org/2000/svg">
<mask id="mask0_3_59" style="mask-type:alpha" maskUnits="userSpaceOnUse" x="0" y="0" width="349" height="261">
<path d="M25.0551 0.869995C11.6014 0.869995 0.695068 11.7763 0.695068 25.23V61.77C0.695068 62.047 0.699692 62.323 0.708868 62.5977C0.69969 62.9007 0.695068 63.2048 0.695068 63.51V230.55C0.695068 246.887 13.9385 260.13 30.2751 260.13H319.115C335.452 260.13 348.695 246.887 348.695 230.55V63.51C348.695 47.1734 335.452 33.93 319.115 33.93H150.335C145.53 33.93 141.635 30.0349 141.635 25.23C141.635 11.7763 130.729 0.869995 117.275 0.869995H25.0551Z" fill="#D9D9D9"/>
</mask>
<g mask="url(#mask0_3_59)">
<ellipse cx="424.385" cy="6.95938" rx="495.03" ry="495.03" fill="url(#paint0_radial_3_59)"/>
<g filter="url(#filter0_d_3_59)">
<ellipse cx="518.345" cy="6.95926" rx="495.03" ry="495.03" fill="url(#paint1_radial_3_59)"/>
</g>
<g filter="url(#filter1_d_3_59)">
<ellipse cx="436.565" cy="-31.3207" rx="362.79" ry="362.79" fill="url(#paint2_radial_3_59)"/>
</g>
</g>
<defs>
<filter id="filter0_d_3_59" x="13.5874" y="-493.475" width="1009.51" height="1009.52" filterUnits="userSpaceOnUse" color-interpolation-filters="sRGB">
<feFlood flood-opacity="0" result="BackgroundImageFix"/>
<feColorMatrix in="SourceAlpha" type="matrix" values="0 0 0 0 0 0 0 0 0 0 0 0 0 0 0 0 0 0 127 0" result="hardAlpha"/>
<feMorphology radius="3.24256" operator="erode" in="SourceAlpha" result="effect1_dropShadow_3_59"/>
<feOffset dy="4.32342"/>
<feGaussianBlur stdDeviation="6.48513"/>
<feComposite in2="hardAlpha" operator="out"/>
<feColorMatrix type="matrix" values="0 0 0 0 0 0 0 0 0 0 0 0 0 0 0 0 0 0 0.25 0"/>
<feBlend mode="normal" in2="BackgroundImageFix" result="effect1_dropShadow_3_59"/>
<feBlend mode="normal" in="SourceGraphic" in2="effect1_dropShadow_3_59" result="shape"/>
</filter>
<filter id="filter1_d_3_59" x="64.0475" y="-399.515" width="745.036" height="745.035" filterUnits="userSpaceOnUse" color-interpolation-filters="sRGB">
<feFlood flood-opacity="0" result="BackgroundImageFix"/>
<feColorMatrix in="SourceAlpha" type="matrix" values="0 0 0 0 0 0 0 0 0 0 0 0 0 0 0 0 0 0 127 0" result="hardAlpha"/>
<feMorphology radius="3.24256" operator="erode" in="SourceAlpha" result="effect1_dropShadow_3_59"/>
<feOffset dy="4.32342"/>
<feGaussianBlur stdDeviation="6.48513"/>
<feComposite in2="hardAlpha" operator="out"/>
<feColorMatrix type="matrix" values="0 0 0 0 0 0 0 0 0 0 0 0 0 0 0 0 0 0 0.25 0"/>
<feBlend mode="normal" in2="BackgroundImageFix" result="effect1_dropShadow_3_59"/>
<feBlend mode="normal" in="SourceGraphic" in2="effect1_dropShadow_3_59" result="shape"/>
</filter>
<radialGradient id="paint0_radial_3_59" cx="0" cy="0" r="1" gradientUnits="userSpaceOnUse" gradientTransform="translate(424.385 6.95938) rotate(90) scale(495.03 495.03)">
<stop stop-color="#007CA3"/>
<stop offset="1" stop-color="#64FFF6"/>
</radialGradient>
<radialGradient id="paint1_radial_3_59" cx="0" cy="0" r="1" gradientUnits="userSpaceOnUse" gradientTransform="translate(518.345 6.95926) rotate(90) scale(495.03 495.03)">
<stop stop-color="#007CA3"/>
<stop offset="1" stop-color="#64FFF6"/>
</radialGradient>
<radialGradient id="paint2_radial_3_59" cx="0" cy="0" r="1" gradientUnits="userSpaceOnUse" gradientTransform="translate(436.565 -31.3207) rotate(90) scale(362.79 362.79)">
<stop stop-color="#00D1FF"/>
<stop offset="1" stop-color="#64FFF6"/>
</radialGradient>
</defs>
</svg>
