<svg width="400" height="550" viewBox="0 0 400 550" fill="none" xmlns="http://www.w3.org/2000/svg">
<path fill-rule="evenodd" clip-rule="evenodd" d="M290.173 0H33C14.7746 0 0 14.7746 0 33V517C0 535.225 14.7746 550 33 550H367C385.225 550 400 535.225 400 517V109.827L290.173 0Z" fill="#D9D9D9"/>
<path fill-rule="evenodd" clip-rule="evenodd" d="M290.173 0L400 109.827L323.173 109.827C304.948 109.827 290.173 95.0523 290.173 76.8269V0Z" fill="#BCBCBC"/>
<rect x="35" y="151" width="330" height="14" fill="#C4C4C4"/>
<rect x="35" y="201" width="330" height="14" fill="#C4C4C4"/>
<rect x="35" y="251" width="330" height="14" fill="#C4C4C4"/>
<rect x="35" y="301" width="330" height="14" fill="#C4C4C4"/>
<rect x="35" y="351" width="330" height="14" fill="#C4C4C4"/>
<rect x="35" y="401" width="330" height="14" fill="#C4C4C4"/>
<rect x="35" y="451" width="330" height="14" fill="#C4C4C4"/>
</svg>
