<svg width="400" height="550" viewBox="0 0 400 550" fill="none" xmlns="http://www.w3.org/2000/svg">
<path fill-rule="evenodd" clip-rule="evenodd" d="M290.173 0H33C14.7747 0 0 14.7747 0 33V517C0 535.225 14.7745 550 33 550H367C385.225 550 400 535.225 400 517V109.827L290.173 0Z" fill="#EEEEEE"/>
<g filter="url(#filter0_d_105_132)">
<path d="M181.873 282.616L227.953 238.072V226.552L214.897 213.496H181.361L169.329 225.528V240.12H135.025V215.032L166.257 183.8H230.001L262.257 216.056V248.312L215.665 293.368V314.104H181.873V282.616ZM179.057 351.992V336.632L190.065 325.624H207.473L218.481 336.632V351.992L207.473 363H190.065L179.057 351.992Z" fill="#FF5252"/>
</g>
<path fill-rule="evenodd" clip-rule="evenodd" d="M290 0L399.827 109.827L323 109.827C304.775 109.827 290 95.0523 290 76.8269V0Z" fill="#D9D9D9"/>
<defs>
<filter id="filter0_d_105_132" x="131.025" y="183.8" width="135.232" height="187.2" filterUnits="userSpaceOnUse" color-interpolation-filters="sRGB">
<feFlood flood-opacity="0" result="BackgroundImageFix"/>
<feColorMatrix in="SourceAlpha" type="matrix" values="0 0 0 0 0 0 0 0 0 0 0 0 0 0 0 0 0 0 127 0" result="hardAlpha"/>
<feOffset dy="4"/>
<feGaussianBlur stdDeviation="2"/>
<feComposite in2="hardAlpha" operator="out"/>
<feColorMatrix type="matrix" values="0 0 0 0 0 0 0 0 0 0 0 0 0 0 0 0 0 0 0.25 0"/>
<feBlend mode="normal" in2="BackgroundImageFix" result="effect1_dropShadow_105_132"/>
<feBlend mode="normal" in="SourceGraphic" in2="effect1_dropShadow_105_132" result="shape"/>
</filter>
</defs>
</svg>
