<svg width="400" height="550" viewBox="0 0 400 550" fill="none" xmlns="http://www.w3.org/2000/svg">
<path fill-rule="evenodd" clip-rule="evenodd" d="M290.173 0H33C14.7746 0 0 14.7746 0 33V517C0 535.225 14.7746 550 33 550H367C385.225 550 400 535.225 400 517V109.827L290.173 0Z" fill="#D9D9D9"/>
<path fill-rule="evenodd" clip-rule="evenodd" d="M290.173 0L400 109.827L323.173 109.827C304.948 109.827 290.173 95.0523 290.173 76.8269V0Z" fill="#BCBCBC"/>
<g filter="url(#filter0_i_105_130)">
<path d="M281.625 266.963C295.125 274.757 295.125 294.243 281.625 302.037L173.625 364.391C160.125 372.185 143.25 362.442 143.25 346.854V222.146C143.25 206.558 160.125 196.815 173.625 204.609L281.625 266.963Z" fill="#E4D3FF"/>
</g>
<defs>
<filter id="filter0_i_105_130" x="143.25" y="201.866" width="148.5" height="165.268" filterUnits="userSpaceOnUse" color-interpolation-filters="sRGB">
<feFlood flood-opacity="0" result="BackgroundImageFix"/>
<feBlend mode="normal" in="SourceGraphic" in2="BackgroundImageFix" result="shape"/>
<feColorMatrix in="SourceAlpha" type="matrix" values="0 0 0 0 0 0 0 0 0 0 0 0 0 0 0 0 0 0 127 0" result="hardAlpha"/>
<feOffset/>
<feGaussianBlur stdDeviation="12.5"/>
<feComposite in2="hardAlpha" operator="arithmetic" k2="-1" k3="1"/>
<feColorMatrix type="matrix" values="0 0 0 0 0.70833 0 0 0 0 0.416667 0 0 0 0 1 0 0 0 1 0"/>
<feBlend mode="normal" in2="shape" result="effect1_innerShadow_105_130"/>
</filter>
</defs>
</svg>
